<?xml version="1.0" standalone="no"?>
<!DOCTYPE svg PUBLIC "-//W3C//DTD SVG 20010904//EN"
 "http://www.w3.org/TR/2001/REC-SVG-20010904/DTD/svg10.dtd">
<svg version="1.0" xmlns="http://www.w3.org/2000/svg"
 width="475.000000pt" height="475.000000pt" viewBox="0 0 475.000000 475.000000"
 preserveAspectRatio="xMidYMid meet">
<metadata>
Created by potrace 1.11, written by Peter Selinger 2001-2013
</metadata>
<g transform="translate(0.000000,475.000000) scale(0.100000,-0.100000)"
fill="#000000" stroke="none">
<path d="M2210 4697 c-3 -3 -39 -7 -80 -11 -41 -3 -84 -8 -95 -10 -11 -2 -40
-7 -65 -11 -25 -4 -56 -9 -70 -12 -200 -34 -534 -160 -740 -279 -49 -28 -222
-143 -230 -153 -3 -3 -23 -19 -45 -36 -85 -63 -276 -247 -347 -335 -274 -338
-447 -714 -507 -1100 -6 -36 -13 -83 -17 -105 -13 -82 -12 -420 2 -529 38
-309 155 -661 290 -874 19 -29 34 -55 34 -58 0 -10 110 -164 174 -244 81 -102
262 -281 366 -361 82 -64 223 -162 265 -185 352 -189 578 -266 930 -316 149
-20 510 -16 651 8 125 21 160 28 244 49 104 26 237 68 287 91 17 8 34 14 37
14 16 0 232 110 320 163 269 161 500 370 678 612 49 66 93 125 98 132 6 7 10
16 10 21 0 5 9 20 19 34 31 38 145 274 184 378 32 84 73 213 82 259 2 9 8 36
14 61 5 25 13 68 17 95 3 28 8 52 9 56 25 41 26 498 1 659 -101 670 -492 1261
-1078 1628 -99 62 -316 171 -383 192 -22 7 -44 16 -50 20 -8 6 -108 38 -220
70 -44 13 -222 48 -280 55 -27 4 -61 9 -75 12 -32 6 -424 15 -430 10z"/>
</g>
</svg>
