<?xml version="1.0" encoding="UTF-8" standalone="no"?>
<svg
   xmlns:dc="http://purl.org/dc/elements/1.1/"
   xmlns:cc="http://creativecommons.org/ns#"
   xmlns:rdf="http://www.w3.org/1999/02/22-rdf-syntax-ns#"
   xmlns:svg="http://www.w3.org/2000/svg"
   xmlns="http://www.w3.org/2000/svg"
   viewBox="0 0 851.21063 508.03436"
   height="508.03436"
   width="851.21063"
   xml:space="preserve"
   version="1.1"
   id="svg2"><metadata
     id="metadata8"><rdf:RDF><cc:Work
         rdf:about=""><dc:format>image/svg+xml</dc:format><dc:type
           rdf:resource="http://purl.org/dc/dcmitype/StillImage" /></cc:Work></rdf:RDF></metadata><defs
     id="defs6"><clipPath
       id="clipPath20"
       clipPathUnits="userSpaceOnUse"><path
         id="path22"
         d="m 40.590625,37.54375 446.399995,0 0,332.64 -446.399995,0 0,-332.64 z" /></clipPath><clipPath
       id="clipPath48"
       clipPathUnits="userSpaceOnUse"><path
         id="path50"
         d="m 40.590625,37.54375 446.399995,0 0,332.64 -446.399995,0 0,-332.64 z" /></clipPath><clipPath
       id="clipPath66"
       clipPathUnits="userSpaceOnUse"><path
         id="path68"
         d="m 40.590625,37.54375 446.399995,0 0,332.64 -446.399995,0 0,-332.64 z" /></clipPath><clipPath
       id="clipPath84"
       clipPathUnits="userSpaceOnUse"><path
         id="path86"
         d="m 40.590625,37.54375 446.399995,0 0,332.64 -446.399995,0 0,-332.64 z" /></clipPath><clipPath
       id="clipPath102"
       clipPathUnits="userSpaceOnUse"><path
         id="path104"
         d="m 40.590625,37.54375 446.399995,0 0,332.64 -446.399995,0 0,-332.64 z" /></clipPath><clipPath
       id="clipPath120"
       clipPathUnits="userSpaceOnUse"><path
         id="path122"
         d="m 40.590625,37.54375 446.399995,0 0,332.64 -446.399995,0 0,-332.64 z" /></clipPath><clipPath
       id="clipPath138"
       clipPathUnits="userSpaceOnUse"><path
         id="path140"
         d="m 40.590625,37.54375 446.399995,0 0,332.64 -446.399995,0 0,-332.64 z" /></clipPath><clipPath
       id="clipPath156"
       clipPathUnits="userSpaceOnUse"><path
         id="path158"
         d="m 40.590625,37.54375 446.399995,0 0,332.64 -446.399995,0 0,-332.64 z" /></clipPath><clipPath
       id="clipPath174"
       clipPathUnits="userSpaceOnUse"><path
         id="path176"
         d="m 40.590625,37.54375 446.399995,0 0,332.64 -446.399995,0 0,-332.64 z" /></clipPath><clipPath
       id="clipPath192"
       clipPathUnits="userSpaceOnUse"><path
         id="path194"
         d="m 40.590625,37.54375 446.399995,0 0,332.64 -446.399995,0 0,-332.64 z" /></clipPath><clipPath
       id="clipPath210"
       clipPathUnits="userSpaceOnUse"><path
         id="path212"
         d="m 40.590625,37.54375 446.399995,0 0,332.64 -446.399995,0 0,-332.64 z" /></clipPath><clipPath
       id="clipPath228"
       clipPathUnits="userSpaceOnUse"><path
         id="path230"
         d="m 40.590625,37.54375 446.399995,0 0,332.64 -446.399995,0 0,-332.64 z" /></clipPath><clipPath
       id="clipPath246"
       clipPathUnits="userSpaceOnUse"><path
         id="path248"
         d="m 40.590625,37.54375 446.399995,0 0,332.64 -446.399995,0 0,-332.64 z" /></clipPath><clipPath
       id="clipPath264"
       clipPathUnits="userSpaceOnUse"><path
         id="path266"
         d="m 40.590625,37.54375 446.399995,0 0,332.64 -446.399995,0 0,-332.64 z" /></clipPath><clipPath
       id="clipPath286"
       clipPathUnits="userSpaceOnUse"><path
         id="path288"
         d="m 40.590625,37.54375 446.399995,0 0,332.64 -446.399995,0 0,-332.64 z" /></clipPath><clipPath
       id="clipPath304"
       clipPathUnits="userSpaceOnUse"><path
         id="path306"
         d="m 40.590625,37.54375 446.399995,0 0,332.64 -446.399995,0 0,-332.64 z" /></clipPath><clipPath
       id="clipPath322"
       clipPathUnits="userSpaceOnUse"><path
         id="path324"
         d="m 40.590625,37.54375 446.399995,0 0,332.64 -446.399995,0 0,-332.64 z" /></clipPath><clipPath
       id="clipPath340"
       clipPathUnits="userSpaceOnUse"><path
         id="path342"
         d="m 40.590625,37.54375 446.399995,0 0,332.64 -446.399995,0 0,-332.64 z" /></clipPath><clipPath
       id="clipPath358"
       clipPathUnits="userSpaceOnUse"><path
         id="path360"
         d="m 40.590625,37.54375 446.399995,0 0,332.64 -446.399995,0 0,-332.64 z" /></clipPath><clipPath
       id="clipPath376"
       clipPathUnits="userSpaceOnUse"><path
         id="path378"
         d="m 40.590625,37.54375 446.399995,0 0,332.64 -446.399995,0 0,-332.64 z" /></clipPath><clipPath
       id="clipPath394"
       clipPathUnits="userSpaceOnUse"><path
         id="path396"
         d="m 40.590625,37.54375 446.399995,0 0,332.64 -446.399995,0 0,-332.64 z" /></clipPath><clipPath
       id="clipPath412"
       clipPathUnits="userSpaceOnUse"><path
         id="path414"
         d="m 40.590625,37.54375 446.399995,0 0,332.64 -446.399995,0 0,-332.64 z" /></clipPath><clipPath
       id="clipPath430"
       clipPathUnits="userSpaceOnUse"><path
         id="path432"
         d="m 40.590625,37.54375 446.399995,0 0,332.64 -446.399995,0 0,-332.64 z" /></clipPath></defs><g
     transform="matrix(1.25,0,0,-1.25,0,508.03437)"
     id="g10"><path
       id="path12"
       style="fill:#ffffff;fill-opacity:1;fill-rule:nonzero;stroke:none"
       d="m 0,0 680.9685,0 0,406.4275 L 0,406.4275 0,0 Z" /><path
       id="path14"
       style="fill:#ffffff;fill-opacity:1;fill-rule:nonzero;stroke:none"
       d="m 40.590625,37.54375 446.399995,0 0,332.64 -446.399995,0 0,-332.64 z" /><g
       id="g16"><g
         clip-path="url(#clipPath20)"
         id="g18"><path
           id="path24"
           style="fill:#003f5c;fill-opacity:0.8;fill-rule:nonzero;stroke:#003f5c;stroke-width:1;stroke-linecap:butt;stroke-linejoin:round;stroke-miterlimit:10;stroke-dasharray:none;stroke-opacity:0.8"
           d="m 466.42474,340.00957 c 3.85482,0 7.55227,1.53154 10.27804,4.25731 2.72577,2.72576 4.2573,6.42322 4.2573,10.27803 0,3.85482 -1.53153,7.55227 -4.2573,10.27804 -2.72577,2.72577 -6.42322,4.2573 -10.27804,4.2573 -3.85481,0 -7.55227,-1.53153 -10.27803,-4.2573 -2.72577,-2.72577 -4.25731,-6.42322 -4.25731,-10.27804 0,-3.85481 1.53154,-7.55227 4.25731,-10.27803 2.72576,-2.72577 6.42322,-4.25731 10.27803,-4.25731 z" /><path
           id="path26"
           style="fill:#2f4b7c;fill-opacity:0.8;fill-rule:nonzero;stroke:#2f4b7c;stroke-width:1;stroke-linecap:butt;stroke-linejoin:round;stroke-miterlimit:10;stroke-dasharray:none;stroke-opacity:0.8"
           d="m 449.53514,115.40972 c 3.03131,0 5.93887,1.20435 8.08233,3.34781 2.14346,2.14346 3.34781,5.05101 3.34781,8.08232 0,3.03131 -1.20435,5.93887 -3.34781,8.08233 -2.14346,2.14345 -5.05102,3.3478 -8.08233,3.3478 -3.0313,0 -5.93886,-1.20435 -8.08232,-3.3478 -2.14346,-2.14346 -3.34781,-5.05102 -3.34781,-8.08233 0,-3.03131 1.20435,-5.93886 3.34781,-8.08232 2.14346,-2.14346 5.05102,-3.34781 8.08232,-3.34781 z" /><path
           id="path28"
           style="fill:#665191;fill-opacity:0.8;fill-rule:nonzero;stroke:#665191;stroke-width:1;stroke-linecap:butt;stroke-linejoin:round;stroke-miterlimit:10;stroke-dasharray:none;stroke-opacity:0.8"
           d="m 415.75595,89.477824 c 2.9732,0 5.82502,1.181265 7.92739,3.283634 2.10237,2.102369 3.28363,4.954194 3.28363,7.927392 0,2.9732 -1.18126,5.82502 -3.28363,7.92739 -2.10237,2.10237 -4.95419,3.28364 -7.92739,3.28364 -2.9732,0 -5.82503,-1.18127 -7.9274,-3.28364 -2.10237,-2.10237 -3.28363,-4.95419 -3.28363,-7.92739 0,-2.973198 1.18126,-5.825023 3.28363,-7.927392 2.10237,-2.102369 4.9542,-3.283634 7.9274,-3.283634 z" /><path
           id="path30"
           style="fill:#a05195;fill-opacity:0.8;fill-rule:nonzero;stroke:#a05195;stroke-width:1;stroke-linecap:butt;stroke-linejoin:round;stroke-miterlimit:10;stroke-dasharray:none;stroke-opacity:0.8"
           d="m 365.08715,67.226748 c 2.95385,0 5.78712,1.173578 7.87581,3.262267 2.08869,2.08869 3.26227,4.921958 3.26227,7.87581 0,2.953853 -1.17358,5.787121 -3.26227,7.87581 -2.08869,2.088689 -4.92196,3.262267 -7.87581,3.262267 -2.95385,0 -5.78712,-1.173578 -7.87581,-3.262267 -2.08869,-2.088689 -3.26227,-4.921957 -3.26227,-7.87581 0,-2.953852 1.17358,-5.78712 3.26227,-7.87581 2.08869,-2.088689 4.92196,-3.262267 7.87581,-3.262267 z" /><path
           id="path32"
           style="fill:#d45087;fill-opacity:0.8;fill-rule:nonzero;stroke:#d45087;stroke-width:1;stroke-linecap:butt;stroke-linejoin:round;stroke-miterlimit:10;stroke-dasharray:none;stroke-opacity:0.8"
           d="m 61.074375,272.27643 c 2.70342,0 5.296479,1.07408 7.208085,2.98569 1.911606,1.9116 2.985686,4.50466 2.985686,7.20808 0,2.70342 -1.07408,5.29648 -2.985686,7.20809 -1.911606,1.9116 -4.504665,2.98568 -7.208085,2.98568 -2.703419,0 -5.296478,-1.07408 -7.208084,-2.98568 -1.911607,-1.91161 -2.985687,-4.50467 -2.985687,-7.20809 0,-2.70342 1.07408,-5.29648 2.985687,-7.20808 1.911606,-1.91161 4.504665,-2.98569 7.208084,-2.98569 z" /><path
           id="path34"
           style="fill:#f95d6a;fill-opacity:0.8;fill-rule:nonzero;stroke:#f95d6a;stroke-width:1;stroke-linecap:butt;stroke-linejoin:round;stroke-miterlimit:10;stroke-dasharray:none;stroke-opacity:0.8"
           d="m 94.853573,113.32435 c 2.569428,0 5.033965,1.02084 6.850827,2.8377 1.81686,1.81686 2.8377,4.2814 2.8377,6.85083 0,2.56942 -1.02084,5.03396 -2.8377,6.85082 -1.816862,1.81686 -4.281399,2.83771 -6.850827,2.83771 -2.569429,0 -5.033966,-1.02085 -6.850826,-2.83771 -1.81686,-1.81686 -2.837704,-4.2814 -2.837704,-6.85082 0,-2.56943 1.020844,-5.03397 2.837704,-6.85083 1.81686,-1.81686 4.281397,-2.8377 6.850826,-2.8377 z" /><path
           id="path36"
           style="fill:#ff7c43;fill-opacity:0.8;fill-rule:nonzero;stroke:#ff7c43;stroke-width:1;stroke-linecap:butt;stroke-linejoin:round;stroke-miterlimit:10;stroke-dasharray:none;stroke-opacity:0.8"
           d="m 449.53514,122.39788 c 2.53126,0 4.95919,1.00568 6.74906,2.79555 1.78987,1.78987 2.79555,4.2178 2.79555,6.74906 0,2.53126 -1.00568,4.95918 -2.79555,6.74905 -1.78987,1.78988 -4.2178,2.79556 -6.74906,2.79556 -2.53126,0 -4.95918,-1.00568 -6.74905,-2.79556 -1.78988,-1.78987 -2.79556,-4.21779 -2.79556,-6.74905 0,-2.53126 1.00568,-4.95919 2.79556,-6.74906 1.78987,-1.78987 4.21779,-2.79555 6.74905,-2.79555 z" /><path
           id="path38"
           style="fill:#ffa600;fill-opacity:0.8;fill-rule:nonzero;stroke:#ffa600;stroke-width:1;stroke-linecap:butt;stroke-linejoin:round;stroke-miterlimit:10;stroke-dasharray:none;stroke-opacity:0.8"
           d="m 449.53514,90.578299 c 2.5122,0 4.92184,0.998106 6.69823,2.774496 1.77639,1.776391 2.7745,4.186031 2.7745,6.698225 0,2.5122 -0.99811,4.92184 -2.7745,6.69823 -1.77639,1.77639 -4.18603,2.77449 -6.69823,2.77449 -2.51219,0 -4.92183,-0.9981 -6.69822,-2.77449 -1.77639,-1.77639 -2.7745,-4.18603 -2.7745,-6.69823 0,-2.512194 0.99811,-4.921834 2.7745,-6.698225 1.77639,-1.77639 4.18603,-2.774496 6.69822,-2.774496 z" /><path
           id="path40"
           style="fill:#66bb6a;fill-opacity:0.8;fill-rule:nonzero;stroke:#66bb6a;stroke-width:1;stroke-linecap:butt;stroke-linejoin:round;stroke-miterlimit:10;stroke-dasharray:none;stroke-opacity:0.8"
           d="m 432.64555,50.46689 c 2.49314,0 4.88451,0.990537 6.64742,2.753456 1.76292,1.762919 2.75346,4.154286 2.75346,6.64743 0,2.493143 -0.99054,4.88451 -2.75346,6.647429 -1.76291,1.762919 -4.15428,2.753456 -6.64742,2.753456 -2.49315,0 -4.88452,-0.990537 -6.64743,-2.753456 -1.76292,-1.762919 -2.75346,-4.154286 -2.75346,-6.647429 0,-2.493144 0.99054,-4.884511 2.75346,-6.64743 1.76291,-1.762919 4.15428,-2.753456 6.64743,-2.753456 z" /><path
           id="path42"
           style="fill:#87ca5f;fill-opacity:0.8;fill-rule:nonzero;stroke:#87ca5f;stroke-width:1;stroke-linecap:butt;stroke-linejoin:round;stroke-miterlimit:10;stroke-dasharray:none;stroke-opacity:0.8"
           d="m 415.75595,216.44603 c 2.45508,0 4.80994,0.97542 6.54594,2.71142 1.736,1.736 2.71142,4.09086 2.71142,6.54594 0,2.45508 -0.97542,4.80994 -2.71142,6.54595 -1.736,1.736 -4.09086,2.71141 -6.54594,2.71141 -2.45508,0 -4.80994,-0.97541 -6.54595,-2.71141 -1.736,-1.73601 -2.71141,-4.09087 -2.71141,-6.54595 0,-2.45508 0.97541,-4.80994 2.71141,-6.54594 1.73601,-1.736 4.09087,-2.71142 6.54595,-2.71142 z" /></g></g><g
       id="g44"><g
         clip-path="url(#clipPath48)"
         id="g46"><path
           id="path52"
           style="fill:none;stroke:#808080;stroke-width:0.80000001;stroke-linecap:butt;stroke-linejoin:round;stroke-miterlimit:10;stroke-dasharray:2.96, 1.28;stroke-dashoffset:0;stroke-opacity:0.3"
           d="m 61.074375,37.54375 0,332.64" /></g></g><g
       id="g54"><path
         id="path56"
         style="fill:#000000;fill-opacity:1;fill-rule:nonzero;stroke:#000000;stroke-width:0.80000001;stroke-linecap:butt;stroke-linejoin:round;stroke-miterlimit:10;stroke-dasharray:none;stroke-opacity:1"
         d="m 61.074375,37.54375 0,-3.5" /><text
         id="text58"
         style="font-variant:normal;font-weight:normal;font-size:10px;font-family:'DejaVu Sans';-inkscape-font-specification:DejaVuSans;writing-mode:lr-tb;fill:#000000;fill-opacity:1;fill-rule:nonzero;stroke:none"
         transform="matrix(1,0,0,-1,57.894688,22.95)"><tspan
           id="tspan60"
           y="0"
           x="0">6</tspan></text>
</g><g
       id="g62"><g
         clip-path="url(#clipPath66)"
         id="g64"><path
           id="path70"
           style="fill:none;stroke:#808080;stroke-width:0.80000001;stroke-linecap:butt;stroke-linejoin:round;stroke-miterlimit:10;stroke-dasharray:2.96, 1.28;stroke-dashoffset:0;stroke-opacity:0.3"
           d="m 94.853573,37.54375 0,332.64" /></g></g><g
       id="g72"><path
         id="path74"
         style="fill:#000000;fill-opacity:1;fill-rule:nonzero;stroke:#000000;stroke-width:0.80000001;stroke-linecap:butt;stroke-linejoin:round;stroke-miterlimit:10;stroke-dasharray:none;stroke-opacity:1"
         d="m 94.853573,37.54375 0,-3.5" /><text
         id="text76"
         style="font-variant:normal;font-weight:normal;font-size:10px;font-family:'DejaVu Sans';-inkscape-font-specification:DejaVuSans;writing-mode:lr-tb;fill:#000000;fill-opacity:1;fill-rule:nonzero;stroke:none"
         transform="matrix(1,0,0,-1,91.673885,22.95)"><tspan
           id="tspan78"
           y="0"
           x="0">8</tspan></text>
</g><g
       id="g80"><g
         clip-path="url(#clipPath84)"
         id="g82"><path
           id="path88"
           style="fill:none;stroke:#808080;stroke-width:0.80000001;stroke-linecap:butt;stroke-linejoin:round;stroke-miterlimit:10;stroke-dasharray:2.96, 1.28;stroke-dashoffset:0;stroke-opacity:0.3"
           d="m 128.63277,37.54375 0,332.64" /></g></g><g
       id="g90"><path
         id="path92"
         style="fill:#000000;fill-opacity:1;fill-rule:nonzero;stroke:#000000;stroke-width:0.80000001;stroke-linecap:butt;stroke-linejoin:round;stroke-miterlimit:10;stroke-dasharray:none;stroke-opacity:1"
         d="m 128.63277,37.54375 0,-3.5" /><text
         id="text94"
         style="font-variant:normal;font-weight:normal;font-size:10px;font-family:'DejaVu Sans';-inkscape-font-specification:DejaVuSans;writing-mode:lr-tb;fill:#000000;fill-opacity:1;fill-rule:nonzero;stroke:none"
         transform="matrix(1,0,0,-1,122.27339,22.95)"><tspan
           id="tspan96"
           y="0"
           x="0 6.3600001">10</tspan></text>
</g><g
       id="g98"><g
         clip-path="url(#clipPath102)"
         id="g100"><path
           id="path106"
           style="fill:none;stroke:#808080;stroke-width:0.80000001;stroke-linecap:butt;stroke-linejoin:round;stroke-miterlimit:10;stroke-dasharray:2.96, 1.28;stroke-dashoffset:0;stroke-opacity:0.3"
           d="m 162.41197,37.54375 0,332.64" /></g></g><g
       id="g108"><path
         id="path110"
         style="fill:#000000;fill-opacity:1;fill-rule:nonzero;stroke:#000000;stroke-width:0.80000001;stroke-linecap:butt;stroke-linejoin:round;stroke-miterlimit:10;stroke-dasharray:none;stroke-opacity:1"
         d="m 162.41197,37.54375 0,-3.5" /><text
         id="text112"
         style="font-variant:normal;font-weight:normal;font-size:10px;font-family:'DejaVu Sans';-inkscape-font-specification:DejaVuSans;writing-mode:lr-tb;fill:#000000;fill-opacity:1;fill-rule:nonzero;stroke:none"
         transform="matrix(1,0,0,-1,156.05259,22.95)"><tspan
           id="tspan114"
           y="0"
           x="0 6.3600001">12</tspan></text>
</g><g
       id="g116"><g
         clip-path="url(#clipPath120)"
         id="g118"><path
           id="path124"
           style="fill:none;stroke:#808080;stroke-width:0.80000001;stroke-linecap:butt;stroke-linejoin:round;stroke-miterlimit:10;stroke-dasharray:2.96, 1.28;stroke-dashoffset:0;stroke-opacity:0.3"
           d="m 196.19116,37.54375 0,332.64" /></g></g><g
       id="g126"><path
         id="path128"
         style="fill:#000000;fill-opacity:1;fill-rule:nonzero;stroke:#000000;stroke-width:0.80000001;stroke-linecap:butt;stroke-linejoin:round;stroke-miterlimit:10;stroke-dasharray:none;stroke-opacity:1"
         d="m 196.19116,37.54375 0,-3.5" /><text
         id="text130"
         style="font-variant:normal;font-weight:normal;font-size:10px;font-family:'DejaVu Sans';-inkscape-font-specification:DejaVuSans;writing-mode:lr-tb;fill:#000000;fill-opacity:1;fill-rule:nonzero;stroke:none"
         transform="matrix(1,0,0,-1,189.83179,22.95)"><tspan
           id="tspan132"
           y="0"
           x="0 6.3600001">14</tspan></text>
</g><g
       id="g134"><g
         clip-path="url(#clipPath138)"
         id="g136"><path
           id="path142"
           style="fill:none;stroke:#808080;stroke-width:0.80000001;stroke-linecap:butt;stroke-linejoin:round;stroke-miterlimit:10;stroke-dasharray:2.96, 1.28;stroke-dashoffset:0;stroke-opacity:0.3"
           d="m 229.97036,37.54375 0,332.64" /></g></g><g
       id="g144"><path
         id="path146"
         style="fill:#000000;fill-opacity:1;fill-rule:nonzero;stroke:#000000;stroke-width:0.80000001;stroke-linecap:butt;stroke-linejoin:round;stroke-miterlimit:10;stroke-dasharray:none;stroke-opacity:1"
         d="m 229.97036,37.54375 0,-3.5" /><text
         id="text148"
         style="font-variant:normal;font-weight:normal;font-size:10px;font-family:'DejaVu Sans';-inkscape-font-specification:DejaVuSans;writing-mode:lr-tb;fill:#000000;fill-opacity:1;fill-rule:nonzero;stroke:none"
         transform="matrix(1,0,0,-1,223.61099,22.95)"><tspan
           id="tspan150"
           y="0"
           x="0 6.3600001">16</tspan></text>
</g><g
       id="g152"><g
         clip-path="url(#clipPath156)"
         id="g154"><path
           id="path160"
           style="fill:none;stroke:#808080;stroke-width:0.80000001;stroke-linecap:butt;stroke-linejoin:round;stroke-miterlimit:10;stroke-dasharray:2.96, 1.28;stroke-dashoffset:0;stroke-opacity:0.3"
           d="m 263.74956,37.54375 0,332.64" /></g></g><g
       id="g162"><path
         id="path164"
         style="fill:#000000;fill-opacity:1;fill-rule:nonzero;stroke:#000000;stroke-width:0.80000001;stroke-linecap:butt;stroke-linejoin:round;stroke-miterlimit:10;stroke-dasharray:none;stroke-opacity:1"
         d="m 263.74956,37.54375 0,-3.5" /><text
         id="text166"
         style="font-variant:normal;font-weight:normal;font-size:10px;font-family:'DejaVu Sans';-inkscape-font-specification:DejaVuSans;writing-mode:lr-tb;fill:#000000;fill-opacity:1;fill-rule:nonzero;stroke:none"
         transform="matrix(1,0,0,-1,257.39018,22.95)"><tspan
           id="tspan168"
           y="0"
           x="0 6.3600001">18</tspan></text>
</g><g
       id="g170"><g
         clip-path="url(#clipPath174)"
         id="g172"><path
           id="path178"
           style="fill:none;stroke:#808080;stroke-width:0.80000001;stroke-linecap:butt;stroke-linejoin:round;stroke-miterlimit:10;stroke-dasharray:2.96, 1.28;stroke-dashoffset:0;stroke-opacity:0.3"
           d="m 297.52876,37.54375 0,332.64" /></g></g><g
       id="g180"><path
         id="path182"
         style="fill:#000000;fill-opacity:1;fill-rule:nonzero;stroke:#000000;stroke-width:0.80000001;stroke-linecap:butt;stroke-linejoin:round;stroke-miterlimit:10;stroke-dasharray:none;stroke-opacity:1"
         d="m 297.52876,37.54375 0,-3.5" /><text
         id="text184"
         style="font-variant:normal;font-weight:normal;font-size:10px;font-family:'DejaVu Sans';-inkscape-font-specification:DejaVuSans;writing-mode:lr-tb;fill:#000000;fill-opacity:1;fill-rule:nonzero;stroke:none"
         transform="matrix(1,0,0,-1,291.16938,22.95)"><tspan
           id="tspan186"
           y="0"
           x="0 6.3600001">20</tspan></text>
</g><g
       id="g188"><g
         clip-path="url(#clipPath192)"
         id="g190"><path
           id="path196"
           style="fill:none;stroke:#808080;stroke-width:0.80000001;stroke-linecap:butt;stroke-linejoin:round;stroke-miterlimit:10;stroke-dasharray:2.96, 1.28;stroke-dashoffset:0;stroke-opacity:0.3"
           d="m 331.30795,37.54375 0,332.64" /></g></g><g
       id="g198"><path
         id="path200"
         style="fill:#000000;fill-opacity:1;fill-rule:nonzero;stroke:#000000;stroke-width:0.80000001;stroke-linecap:butt;stroke-linejoin:round;stroke-miterlimit:10;stroke-dasharray:none;stroke-opacity:1"
         d="m 331.30795,37.54375 0,-3.5" /><text
         id="text202"
         style="font-variant:normal;font-weight:normal;font-size:10px;font-family:'DejaVu Sans';-inkscape-font-specification:DejaVuSans;writing-mode:lr-tb;fill:#000000;fill-opacity:1;fill-rule:nonzero;stroke:none"
         transform="matrix(1,0,0,-1,324.94858,22.95)"><tspan
           id="tspan204"
           y="0"
           x="0 6.3600001">22</tspan></text>
</g><g
       id="g206"><g
         clip-path="url(#clipPath210)"
         id="g208"><path
           id="path214"
           style="fill:none;stroke:#808080;stroke-width:0.80000001;stroke-linecap:butt;stroke-linejoin:round;stroke-miterlimit:10;stroke-dasharray:2.96, 1.28;stroke-dashoffset:0;stroke-opacity:0.3"
           d="m 365.08715,37.54375 0,332.64" /></g></g><g
       id="g216"><path
         id="path218"
         style="fill:#000000;fill-opacity:1;fill-rule:nonzero;stroke:#000000;stroke-width:0.80000001;stroke-linecap:butt;stroke-linejoin:round;stroke-miterlimit:10;stroke-dasharray:none;stroke-opacity:1"
         d="m 365.08715,37.54375 0,-3.5" /><text
         id="text220"
         style="font-variant:normal;font-weight:normal;font-size:10px;font-family:'DejaVu Sans';-inkscape-font-specification:DejaVuSans;writing-mode:lr-tb;fill:#000000;fill-opacity:1;fill-rule:nonzero;stroke:none"
         transform="matrix(1,0,0,-1,358.72778,22.95)"><tspan
           id="tspan222"
           y="0"
           x="0 6.3600001">24</tspan></text>
</g><g
       id="g224"><g
         clip-path="url(#clipPath228)"
         id="g226"><path
           id="path232"
           style="fill:none;stroke:#808080;stroke-width:0.80000001;stroke-linecap:butt;stroke-linejoin:round;stroke-miterlimit:10;stroke-dasharray:2.96, 1.28;stroke-dashoffset:0;stroke-opacity:0.3"
           d="m 398.86635,37.54375 0,332.64" /></g></g><g
       id="g234"><path
         id="path236"
         style="fill:#000000;fill-opacity:1;fill-rule:nonzero;stroke:#000000;stroke-width:0.80000001;stroke-linecap:butt;stroke-linejoin:round;stroke-miterlimit:10;stroke-dasharray:none;stroke-opacity:1"
         d="m 398.86635,37.54375 0,-3.5" /><text
         id="text238"
         style="font-variant:normal;font-weight:normal;font-size:10px;font-family:'DejaVu Sans';-inkscape-font-specification:DejaVuSans;writing-mode:lr-tb;fill:#000000;fill-opacity:1;fill-rule:nonzero;stroke:none"
         transform="matrix(1,0,0,-1,392.50697,22.95)"><tspan
           id="tspan240"
           y="0"
           x="0 6.3600001">26</tspan></text>
</g><g
       id="g242"><g
         clip-path="url(#clipPath246)"
         id="g244"><path
           id="path250"
           style="fill:none;stroke:#808080;stroke-width:0.80000001;stroke-linecap:butt;stroke-linejoin:round;stroke-miterlimit:10;stroke-dasharray:2.96, 1.28;stroke-dashoffset:0;stroke-opacity:0.3"
           d="m 432.64555,37.54375 0,332.64" /></g></g><g
       id="g252"><path
         id="path254"
         style="fill:#000000;fill-opacity:1;fill-rule:nonzero;stroke:#000000;stroke-width:0.80000001;stroke-linecap:butt;stroke-linejoin:round;stroke-miterlimit:10;stroke-dasharray:none;stroke-opacity:1"
         d="m 432.64555,37.54375 0,-3.5" /><text
         id="text256"
         style="font-variant:normal;font-weight:normal;font-size:10px;font-family:'DejaVu Sans';-inkscape-font-specification:DejaVuSans;writing-mode:lr-tb;fill:#000000;fill-opacity:1;fill-rule:nonzero;stroke:none"
         transform="matrix(1,0,0,-1,426.28617,22.95)"><tspan
           id="tspan258"
           y="0"
           x="0 6.3600001">28</tspan></text>
</g><g
       id="g260"><g
         clip-path="url(#clipPath264)"
         id="g262"><path
           id="path268"
           style="fill:none;stroke:#808080;stroke-width:0.80000001;stroke-linecap:butt;stroke-linejoin:round;stroke-miterlimit:10;stroke-dasharray:2.96, 1.28;stroke-dashoffset:0;stroke-opacity:0.3"
           d="m 466.42474,37.54375 0,332.64" /></g></g><g
       id="g270"><path
         id="path272"
         style="fill:#000000;fill-opacity:1;fill-rule:nonzero;stroke:#000000;stroke-width:0.80000001;stroke-linecap:butt;stroke-linejoin:round;stroke-miterlimit:10;stroke-dasharray:none;stroke-opacity:1"
         d="m 466.42474,37.54375 0,-3.5" /><text
         id="text274"
         style="font-variant:normal;font-weight:normal;font-size:10px;font-family:'DejaVu Sans';-inkscape-font-specification:DejaVuSans;writing-mode:lr-tb;fill:#000000;fill-opacity:1;fill-rule:nonzero;stroke:none"
         transform="matrix(1,0,0,-1,460.06537,22.95)"><tspan
           id="tspan276"
           y="0"
           x="0 6.3600001">30</tspan></text>
<text
         id="text278"
         style="font-variant:normal;font-weight:normal;font-size:10px;font-family:'DejaVu Sans';-inkscape-font-specification:DejaVuSans;writing-mode:lr-tb;fill:#000000;fill-opacity:1;fill-rule:nonzero;stroke:none"
         transform="matrix(1,0,0,-1,222.14219,9.278125)"><tspan
           id="tspan280"
           y="0"
           x="0 6.0300002 12.16 16.27 20.190001 22.969999 29.32 35.439999 40.650002 43.830002 46.779999 53.119999 59.470001 65.599998 71.949997 78.07">Partidos Jugados</tspan></text>
</g><g
       id="g282"><g
         clip-path="url(#clipPath286)"
         id="g284"><path
           id="path290"
           style="fill:none;stroke:#808080;stroke-width:0.80000001;stroke-linecap:butt;stroke-linejoin:round;stroke-miterlimit:10;stroke-dasharray:2.96, 1.28;stroke-dashoffset:0;stroke-opacity:0.3"
           d="m 40.590625,37.54375 446.399995,0" /></g></g><g
       id="g292"><path
         id="path294"
         style="fill:#000000;fill-opacity:1;fill-rule:nonzero;stroke:#000000;stroke-width:0.80000001;stroke-linecap:butt;stroke-linejoin:round;stroke-miterlimit:10;stroke-dasharray:none;stroke-opacity:1"
         d="m 40.590625,37.54375 -3.5,0" /><text
         id="text296"
         style="font-variant:normal;font-weight:normal;font-size:10px;font-family:'DejaVu Sans';-inkscape-font-specification:DejaVuSans;writing-mode:lr-tb;fill:#000000;fill-opacity:1;fill-rule:nonzero;stroke:none"
         transform="matrix(1,0,0,-1,20.871875,33.746875)"><tspan
           id="tspan298"
           y="0"
           x="0 6.3600001">24</tspan></text>
</g><g
       id="g300"><g
         clip-path="url(#clipPath304)"
         id="g302"><path
           id="path308"
           style="fill:none;stroke:#808080;stroke-width:0.80000001;stroke-linecap:butt;stroke-linejoin:round;stroke-miterlimit:10;stroke-dasharray:2.96, 1.28;stroke-dashoffset:0;stroke-opacity:0.3"
           d="m 40.590625,75.813508 446.399995,0" /></g></g><g
       id="g310"><path
         id="path312"
         style="fill:#000000;fill-opacity:1;fill-rule:nonzero;stroke:#000000;stroke-width:0.80000001;stroke-linecap:butt;stroke-linejoin:round;stroke-miterlimit:10;stroke-dasharray:none;stroke-opacity:1"
         d="m 40.590625,75.813508 -3.5,0" /><text
         id="text314"
         style="font-variant:normal;font-weight:normal;font-size:10px;font-family:'DejaVu Sans';-inkscape-font-specification:DejaVuSans;writing-mode:lr-tb;fill:#000000;fill-opacity:1;fill-rule:nonzero;stroke:none"
         transform="matrix(1,0,0,-1,20.871875,72.016633)"><tspan
           id="tspan316"
           y="0"
           x="0 6.3600001">25</tspan></text>
</g><g
       id="g318"><g
         clip-path="url(#clipPath322)"
         id="g320"><path
           id="path326"
           style="fill:none;stroke:#808080;stroke-width:0.80000001;stroke-linecap:butt;stroke-linejoin:round;stroke-miterlimit:10;stroke-dasharray:2.96, 1.28;stroke-dashoffset:0;stroke-opacity:0.3"
           d="m 40.590625,114.08327 446.399995,0" /></g></g><g
       id="g328"><path
         id="path330"
         style="fill:#000000;fill-opacity:1;fill-rule:nonzero;stroke:#000000;stroke-width:0.80000001;stroke-linecap:butt;stroke-linejoin:round;stroke-miterlimit:10;stroke-dasharray:none;stroke-opacity:1"
         d="m 40.590625,114.08327 -3.5,0" /><text
         id="text332"
         style="font-variant:normal;font-weight:normal;font-size:10px;font-family:'DejaVu Sans';-inkscape-font-specification:DejaVuSans;writing-mode:lr-tb;fill:#000000;fill-opacity:1;fill-rule:nonzero;stroke:none"
         transform="matrix(1,0,0,-1,20.871875,110.28639)"><tspan
           id="tspan334"
           y="0"
           x="0 6.3600001">26</tspan></text>
</g><g
       id="g336"><g
         clip-path="url(#clipPath340)"
         id="g338"><path
           id="path344"
           style="fill:none;stroke:#808080;stroke-width:0.80000001;stroke-linecap:butt;stroke-linejoin:round;stroke-miterlimit:10;stroke-dasharray:2.96, 1.28;stroke-dashoffset:0;stroke-opacity:0.3"
           d="m 40.590625,152.35302 446.399995,0" /></g></g><g
       id="g346"><path
         id="path348"
         style="fill:#000000;fill-opacity:1;fill-rule:nonzero;stroke:#000000;stroke-width:0.80000001;stroke-linecap:butt;stroke-linejoin:round;stroke-miterlimit:10;stroke-dasharray:none;stroke-opacity:1"
         d="m 40.590625,152.35302 -3.5,0" /><text
         id="text350"
         style="font-variant:normal;font-weight:normal;font-size:10px;font-family:'DejaVu Sans';-inkscape-font-specification:DejaVuSans;writing-mode:lr-tb;fill:#000000;fill-opacity:1;fill-rule:nonzero;stroke:none"
         transform="matrix(1,0,0,-1,20.871875,148.55615)"><tspan
           id="tspan352"
           y="0"
           x="0 6.3600001">27</tspan></text>
</g><g
       id="g354"><g
         clip-path="url(#clipPath358)"
         id="g356"><path
           id="path362"
           style="fill:none;stroke:#808080;stroke-width:0.80000001;stroke-linecap:butt;stroke-linejoin:round;stroke-miterlimit:10;stroke-dasharray:2.96, 1.28;stroke-dashoffset:0;stroke-opacity:0.3"
           d="m 40.590625,190.62278 446.399995,0" /></g></g><g
       id="g364"><path
         id="path366"
         style="fill:#000000;fill-opacity:1;fill-rule:nonzero;stroke:#000000;stroke-width:0.80000001;stroke-linecap:butt;stroke-linejoin:round;stroke-miterlimit:10;stroke-dasharray:none;stroke-opacity:1"
         d="m 40.590625,190.62278 -3.5,0" /><text
         id="text368"
         style="font-variant:normal;font-weight:normal;font-size:10px;font-family:'DejaVu Sans';-inkscape-font-specification:DejaVuSans;writing-mode:lr-tb;fill:#000000;fill-opacity:1;fill-rule:nonzero;stroke:none"
         transform="matrix(1,0,0,-1,20.871875,186.82591)"><tspan
           id="tspan370"
           y="0"
           x="0 6.3600001">28</tspan></text>
</g><g
       id="g372"><g
         clip-path="url(#clipPath376)"
         id="g374"><path
           id="path380"
           style="fill:none;stroke:#808080;stroke-width:0.80000001;stroke-linecap:butt;stroke-linejoin:round;stroke-miterlimit:10;stroke-dasharray:2.96, 1.28;stroke-dashoffset:0;stroke-opacity:0.3"
           d="m 40.590625,228.89254 446.399995,0" /></g></g><g
       id="g382"><path
         id="path384"
         style="fill:#000000;fill-opacity:1;fill-rule:nonzero;stroke:#000000;stroke-width:0.80000001;stroke-linecap:butt;stroke-linejoin:round;stroke-miterlimit:10;stroke-dasharray:none;stroke-opacity:1"
         d="m 40.590625,228.89254 -3.5,0" /><text
         id="text386"
         style="font-variant:normal;font-weight:normal;font-size:10px;font-family:'DejaVu Sans';-inkscape-font-specification:DejaVuSans;writing-mode:lr-tb;fill:#000000;fill-opacity:1;fill-rule:nonzero;stroke:none"
         transform="matrix(1,0,0,-1,20.871875,225.09567)"><tspan
           id="tspan388"
           y="0"
           x="0 6.3600001">29</tspan></text>
</g><g
       id="g390"><g
         clip-path="url(#clipPath394)"
         id="g392"><path
           id="path398"
           style="fill:none;stroke:#808080;stroke-width:0.80000001;stroke-linecap:butt;stroke-linejoin:round;stroke-miterlimit:10;stroke-dasharray:2.96, 1.28;stroke-dashoffset:0;stroke-opacity:0.3"
           d="m 40.590625,267.1623 446.399995,0" /></g></g><g
       id="g400"><path
         id="path402"
         style="fill:#000000;fill-opacity:1;fill-rule:nonzero;stroke:#000000;stroke-width:0.80000001;stroke-linecap:butt;stroke-linejoin:round;stroke-miterlimit:10;stroke-dasharray:none;stroke-opacity:1"
         d="m 40.590625,267.1623 -3.5,0" /><text
         id="text404"
         style="font-variant:normal;font-weight:normal;font-size:10px;font-family:'DejaVu Sans';-inkscape-font-specification:DejaVuSans;writing-mode:lr-tb;fill:#000000;fill-opacity:1;fill-rule:nonzero;stroke:none"
         transform="matrix(1,0,0,-1,20.871875,263.36542)"><tspan
           id="tspan406"
           y="0"
           x="0 6.3600001">30</tspan></text>
</g><g
       id="g408"><g
         clip-path="url(#clipPath412)"
         id="g410"><path
           id="path416"
           style="fill:none;stroke:#808080;stroke-width:0.80000001;stroke-linecap:butt;stroke-linejoin:round;stroke-miterlimit:10;stroke-dasharray:2.96, 1.28;stroke-dashoffset:0;stroke-opacity:0.3"
           d="m 40.590625,305.43206 446.399995,0" /></g></g><g
       id="g418"><path
         id="path420"
         style="fill:#000000;fill-opacity:1;fill-rule:nonzero;stroke:#000000;stroke-width:0.80000001;stroke-linecap:butt;stroke-linejoin:round;stroke-miterlimit:10;stroke-dasharray:none;stroke-opacity:1"
         d="m 40.590625,305.43206 -3.5,0" /><text
         id="text422"
         style="font-variant:normal;font-weight:normal;font-size:10px;font-family:'DejaVu Sans';-inkscape-font-specification:DejaVuSans;writing-mode:lr-tb;fill:#000000;fill-opacity:1;fill-rule:nonzero;stroke:none"
         transform="matrix(1,0,0,-1,20.871875,301.63518)"><tspan
           id="tspan424"
           y="0"
           x="0 6.3600001">31</tspan></text>
</g><g
       id="g426"><g
         clip-path="url(#clipPath430)"
         id="g428"><path
           id="path434"
           style="fill:none;stroke:#808080;stroke-width:0.80000001;stroke-linecap:butt;stroke-linejoin:round;stroke-miterlimit:10;stroke-dasharray:2.96, 1.28;stroke-dashoffset:0;stroke-opacity:0.3"
           d="m 40.590625,343.70181 446.399995,0" /></g></g><g
       id="g436"><path
         id="path438"
         style="fill:#000000;fill-opacity:1;fill-rule:nonzero;stroke:#000000;stroke-width:0.80000001;stroke-linecap:butt;stroke-linejoin:round;stroke-miterlimit:10;stroke-dasharray:none;stroke-opacity:1"
         d="m 40.590625,343.70181 -3.5,0" /><text
         id="text440"
         style="font-variant:normal;font-weight:normal;font-size:10px;font-family:'DejaVu Sans';-inkscape-font-specification:DejaVuSans;writing-mode:lr-tb;fill:#000000;fill-opacity:1;fill-rule:nonzero;stroke:none"
         transform="matrix(1,0,0,-1,20.871875,339.90494)"><tspan
           id="tspan442"
           y="0"
           x="0 6.3600001">32</tspan></text>
<text
         id="text444"
         style="font-variant:normal;font-weight:normal;font-size:10px;font-family:'DejaVu Sans';-inkscape-font-specification:DejaVuSans;writing-mode:lr-tb;fill:#000000;fill-opacity:1;fill-rule:nonzero;stroke:none"
         transform="matrix(0,1,1,0,14.79375,162.86375)"><tspan
           id="tspan446"
           y="0"
           x="0 8.6300001 11.41 17.75 24.09 28.01 34.130001 39.34 42.52 45.470001 51.810001 58.16 64.290001 70.639999 76.760002">Minutos Jugados</tspan></text>
<path
         id="path448"
         style="fill:none;stroke:#000000;stroke-width:0.80000001;stroke-linecap:square;stroke-linejoin:miter;stroke-miterlimit:10;stroke-dasharray:none;stroke-opacity:1"
         d="m 40.590625,37.54375 0,332.64" /><path
         id="path450"
         style="fill:none;stroke:#000000;stroke-width:0.80000001;stroke-linecap:square;stroke-linejoin:miter;stroke-miterlimit:10;stroke-dasharray:none;stroke-opacity:1"
         d="m 486.99062,37.54375 0,332.64" /><path
         id="path452"
         style="fill:none;stroke:#000000;stroke-width:0.80000001;stroke-linecap:square;stroke-linejoin:miter;stroke-miterlimit:10;stroke-dasharray:none;stroke-opacity:1"
         d="m 40.590625,37.54375 446.399995,0" /><path
         id="path454"
         style="fill:none;stroke:#000000;stroke-width:0.80000001;stroke-linecap:square;stroke-linejoin:miter;stroke-miterlimit:10;stroke-dasharray:none;stroke-opacity:1"
         d="m 40.590625,370.18375 446.399995,0" /><text
         id="text456"
         style="font-variant:normal;font-weight:normal;font-size:12px;font-family:'DejaVu Sans';-inkscape-font-specification:DejaVuSans;writing-mode:lr-tb;fill:#000000;fill-opacity:1;fill-rule:nonzero;stroke:none"
         transform="matrix(1,0,0,-1,149.05625,390.1025)"><tspan
           id="tspan458"
           y="0"
           x="0 7.5840001 15.192 20.124001 27.468 30.804001 34.139999 41.759998 49.116001 52.931999 60.264 67.643997 79.332001 86.952003 94.295998 99.227997 106.584 114.204 121.56 125.376 133.716 141.09599 148.716 156.32401 159.66 167.01601 171.948 175.76401 183.396 191.028 198.66 206.29201 210.336 217.968 225.60001">Euroliga Temporada Regular 2017/18 </tspan></text>
<text
         id="text460"
         style="font-variant:normal;font-weight:normal;font-size:12px;font-family:'DejaVu Sans';-inkscape-font-specification:DejaVuSans;writing-mode:lr-tb;fill:#000000;fill-opacity:1;fill-rule:nonzero;stroke:none"
         transform="matrix(1,0,0,-1,112.22381,376.09)"><tspan
           id="tspan462"
           y="0"
           x="0 10.356 17.736 25.356001 28.691999 36.048 39.863998 47.484001 54.863998 58.68 65.916 73.524002 81.132004 85.835999 93.18 99.431999 103.248 109.5 116.88 124.5 132.108 139.716 143.532 151.15199 158.508 163.44 168.144 171.48 179.10001 186.444 192.696 196.51199 203.616 207.43201 219.12 222.45599 230.064 237.672 242.37601 249.72 255.972 259.78799 263.12399 270.73199 278.35199 285.70801 293.328 300.672">Media de Puntos según partidos y minutos jugados</tspan></text>
<path
         id="path464"
         style="fill:#ffffff;fill-opacity:0.8;fill-rule:nonzero;stroke:#cccccc;stroke-width:1;stroke-linecap:butt;stroke-linejoin:miter;stroke-miterlimit:10;stroke-dasharray:none;stroke-opacity:0.8"
         d="m 506.84663,220.465 164.92187,0 c 1.33333,0 2,0.66667 2,2 l 0,145.71875 c 0,1.33333 -0.66667,2 -2,2 l -164.92187,0 c -1.33334,0 -2,-0.66667 -2,-2 l 0,-145.71875 c 0,-1.33333 0.66666,-2 2,-2 z" /><path
         id="path466"
         style="fill:#003f5c;fill-opacity:1;fill-rule:nonzero;stroke:none"
         d="m 508.84663,358.59 19.99999,0 0,7 -19.99999,0 0,-7 z" /><text
         id="text468"
         style="font-variant:normal;font-weight:normal;font-size:10px;font-family:'DejaVu Sans';-inkscape-font-specification:DejaVuSans;writing-mode:lr-tb;fill:#000000;fill-opacity:1;fill-rule:nonzero;stroke:none"
         transform="matrix(1,0,0,-1,536.84662,358.59)"><tspan
           id="tspan470"
           y="0"
           x="0 6.3600001 12.72 15.9 22.26 25.440001 29.049999 32.23 38.580002 46.099998 52.939999 59.259998 66.959999 70.139999 73.32 80.160004 85.730003 92.050003 98.900002 105.22">21.4 - SHVED, ALEXEY</tspan></text>
<path
         id="path472"
         style="fill:#2f4b7c;fill-opacity:1;fill-rule:nonzero;stroke:none"
         d="m 508.84663,343.91812 19.99999,0 0,7 -19.99999,0 0,-7 z" /><text
         id="text474"
         style="font-variant:normal;font-weight:normal;font-size:10px;font-family:'DejaVu Sans';-inkscape-font-specification:DejaVuSans;writing-mode:lr-tb;fill:#000000;fill-opacity:1;fill-rule:nonzero;stroke:none"
         transform="matrix(1,0,0,-1,536.84662,343.91812)"><tspan
           id="tspan476"
           y="0"
           x="0 6.3600001 12.72 15.9 22.26 25.440001 29.049999 32.23 39.93 46.25 49.43 56.41 64.279999 69.849998 77.720001 80.900002 84.080002 91.559998 98.400002 105.88 113.58">17.2 - DE COLO, NANDO</tspan></text>
<path
         id="path478"
         style="fill:#665191;fill-opacity:1;fill-rule:nonzero;stroke:none"
         d="m 508.84663,329.24625 19.99999,0 0,7 -19.99999,0 0,-7 z" /><text
         id="text480"
         style="font-variant:normal;font-weight:normal;font-size:10px;font-family:'DejaVu Sans';-inkscape-font-specification:DejaVuSans;writing-mode:lr-tb;fill:#000000;fill-opacity:1;fill-rule:nonzero;stroke:none"
         transform="matrix(1,0,0,-1,536.84662,329.24625)"><tspan
           id="tspan482"
           y="0"
           x="0 6.3600001 12.72 15.9 22.26 25.440001 29.049999 32.23 39.93 47.799999 55.279999 62.259998 65.209999 72.190002 75.370003 78.550003 84.120003 91.440002 98">16.9 - DONCIC, LUKA</tspan></text>
<path
         id="path484"
         style="fill:#a05195;fill-opacity:1;fill-rule:nonzero;stroke:none"
         d="m 508.84663,314.57437 19.99999,0 0,7 -19.99999,0 0,-7 z" /><text
         id="text486"
         style="font-variant:normal;font-weight:normal;font-size:10px;font-family:'DejaVu Sans';-inkscape-font-specification:DejaVuSans;writing-mode:lr-tb;fill:#000000;fill-opacity:1;fill-rule:nonzero;stroke:none"
         transform="matrix(1,0,0,-1,536.84662,314.57437)"><tspan
           id="tspan488"
           y="0"
           x="0 6.3600001 12.72 15.9 22.26 25.440001 29.049999 32.23 39.709999 46.029999 53.73 61.599998 68.440002 71.389999 78.370003 81.550003 84.730003 92.209999 98.529999 107.16 114 121.48 124.43">16.8 - NEDOVIC, NEMANJA</tspan></text>
<path
         id="path490"
         style="fill:#d45087;fill-opacity:1;fill-rule:nonzero;stroke:none"
         d="m 508.84663,299.9025 19.99999,0 0,7 -19.99999,0 0,-7 z" /><text
         id="text492"
         style="font-variant:normal;font-weight:normal;font-size:10px;font-family:'DejaVu Sans';-inkscape-font-specification:DejaVuSans;writing-mode:lr-tb;fill:#000000;fill-opacity:1;fill-rule:nonzero;stroke:none"
         transform="matrix(1,0,0,-1,536.84662,299.9025)"><tspan
           id="tspan494"
           y="0"
           x="0 6.3600001 12.72 15.9 22.26 25.440001 29.049999 32.23 42.119999 48.439999 54.759998 63.389999 69.739998 72.919998 76.099998 82.449997 90.32 97.800003 105.28">15.5 - WEEMS, SONNY</tspan></text>
<path
         id="path496"
         style="fill:#f95d6a;fill-opacity:1;fill-rule:nonzero;stroke:none"
         d="m 508.84663,285.23062 19.99999,0 0,7 -19.99999,0 0,-7 z" /><text
         id="text498"
         style="font-variant:normal;font-weight:normal;font-size:10px;font-family:'DejaVu Sans';-inkscape-font-specification:DejaVuSans;writing-mode:lr-tb;fill:#000000;fill-opacity:1;fill-rule:nonzero;stroke:none"
         transform="matrix(1,0,0,-1,536.84662,285.23062)"><tspan
           id="tspan500"
           y="0"
           x="0 6.3600001 12.72 15.9 22.26 25.440001 29.049999 32.23 35.18 42.02 50.650002 56.970001 63.32 66.5 69.68 78.309998 81.260002 87.82">14.8 - JAMES, MIKE</tspan></text>
<path
         id="path502"
         style="fill:#ff7c43;fill-opacity:1;fill-rule:nonzero;stroke:none"
         d="m 508.84663,270.55875 19.99999,0 0,7 -19.99999,0 0,-7 z" /><text
         id="text504"
         style="font-variant:normal;font-weight:normal;font-size:10px;font-family:'DejaVu Sans';-inkscape-font-specification:DejaVuSans;writing-mode:lr-tb;fill:#000000;fill-opacity:1;fill-rule:nonzero;stroke:none"
         transform="matrix(1,0,0,-1,536.84662,270.55875)"><tspan
           id="tspan506"
           y="0"
           x="0 6.3600001 12.72 15.9 22.26 25.440001 29.049999 32.23 40.860001 47.84 54.82 62.689999 68.260002 73.830002 81.150002 89.779999 92.959999 96.139999 102.46 109.41 116.36 119.31 126.29">14.6 - MCCOLLUM, ERRICK</tspan></text>
<path
         id="path508"
         style="fill:#ffa600;fill-opacity:1;fill-rule:nonzero;stroke:none"
         d="m 508.84663,255.88687 19.99999,0 0,7 -19.99999,0 0,-7 z" /><text
         id="text510"
         style="font-variant:normal;font-weight:normal;font-size:10px;font-family:'DejaVu Sans';-inkscape-font-specification:DejaVuSans;writing-mode:lr-tb;fill:#000000;fill-opacity:1;fill-rule:nonzero;stroke:none"
         transform="matrix(1,0,0,-1,536.84662,255.88687)"><tspan
           id="tspan512"
           y="0"
           x="0 6.3600001 12.72 15.9 22.26 25.440001 29.049999 32.23 35.18 42.02 49 55.560001 61.91 69.779999 77.260002 80.440002 83.620003 89.650002 92.599998 98.919998 105.87 112.82">14.5 - JACKSON, PIERRE</tspan></text>
<path
         id="path514"
         style="fill:#66bb6a;fill-opacity:1;fill-rule:nonzero;stroke:none"
         d="m 508.84663,241.215 19.99999,0 0,7 -19.99999,0 0,-7 z" /><text
         id="text516"
         style="font-variant:normal;font-weight:normal;font-size:10px;font-family:'DejaVu Sans';-inkscape-font-specification:DejaVuSans;writing-mode:lr-tb;fill:#000000;fill-opacity:1;fill-rule:nonzero;stroke:none"
         transform="matrix(1,0,0,-1,536.84662,241.215)"><tspan
           id="tspan518"
           y="0"
           x="0 6.3600001 12.72 15.9 22.26 25.440001 29.049999 32.23 39.98 46.93 53.25 59.57 67.050003 70.230003 73.410004 79.730003 86.68 89.629997 96.610001">14.4 - GREEN, ERICK</tspan></text>
<path
         id="path520"
         style="fill:#87ca5f;fill-opacity:1;fill-rule:nonzero;stroke:none"
         d="m 508.84663,226.54312 19.99999,0 0,7 -19.99999,0 0,-7 z" /><text
         id="text522"
         style="font-variant:normal;font-weight:normal;font-size:10px;font-family:'DejaVu Sans';-inkscape-font-specification:DejaVuSans;writing-mode:lr-tb;fill:#000000;fill-opacity:1;fill-rule:nonzero;stroke:none"
         transform="matrix(1,0,0,-1,536.84662,226.54312)"><tspan
           id="tspan524"
           y="0"
           x="0 6.3600001 12.72 15.9 22.26 25.440001 29.049999 32.23 39.209999 46.049999 51.619999 58.459999 64.57 72.089996 78.410004 84.760002 87.940002 91.120003 98.599998 101.55 108.53">14.2 - CALATHES, NICK</tspan></text>
</g></g></svg>